<!--?xml version="1.0" standalone="no"?-->
              <svg id="sw-js-blob-svg" viewBox="0 0 100 100" xmlns="http://www.w3.org/2000/svg" version="1.1">
                    <defs> 
                        <linearGradient id="sw-gradient" x1="0" x2="1" y1="1" y2="0">
                            <stop id="stop1" stop-color="rgba(248, 117, 55, 1)" offset="0%"></stop>
                            <stop id="stop2" stop-color="rgba(251, 168, 31, 1)" offset="100%"></stop>
                        </linearGradient>
                    </defs>
                <path fill="url(#sw-gradient)" d="M26.4,-33.4C32,-26.9,32.6,-16.4,34.2,-6.2C35.8,4,38.3,13.8,34.9,20.6C31.5,27.5,22.2,31.4,12.8,34.7C3.3,38,-6.2,40.6,-14.7,38.4C-23.2,36.2,-30.6,29,-34.3,20.7C-38.1,12.4,-38.2,2.8,-35.9,-5.7C-33.6,-14.2,-29,-21.6,-22.6,-28C-16.2,-34.4,-8.1,-39.7,1.2,-41.1C10.4,-42.5,20.9,-39.9,26.4,-33.4Z" width="100%" height="100%" transform="translate(50 50)" stroke-width="0" style="transition: all 0.3s ease 0s;"></path>
              </svg>